<?xml version="1.0" encoding="UTF-8" standalone="no"?>
<svg
   xmlns:dc="http://purl.org/dc/elements/1.1/"
   xmlns:cc="http://creativecommons.org/ns#"
   xmlns:rdf="http://www.w3.org/1999/02/22-rdf-syntax-ns#"
   xmlns:svg="http://www.w3.org/2000/svg"
   xmlns="http://www.w3.org/2000/svg"
   xmlns:sodipodi="http://sodipodi.sourceforge.net/DTD/sodipodi-0.dtd"
   xmlns:inkscape="http://www.inkscape.org/namespaces/inkscape"
   width="297mm"
   height="210mm"
   viewBox="0 0 297 210"
   version="1.1"
   id="svg1235"
   inkscape:version="1.0.2 (e86c8708, 2021-01-15)"
   sodipodi:docname=".svg">
  <defs
     id="defs1229" />
  <sodipodi:namedview
     id="base"
     pagecolor="#ffffff"
     bordercolor="#666666"
     borderopacity="1.0"
     inkscape:pageopacity="0.0"
     inkscape:pageshadow="2"
     inkscape:zoom="0.35"
     inkscape:cx="400"
     inkscape:cy="560"
     inkscape:document-units="mm"
     inkscape:current-layer="g42"
     inkscape:document-rotation="0"
     showgrid="false"
     inkscape:window-width="1252"
     inkscape:window-height="847"
     inkscape:window-x="0"
     inkscape:window-y="25"
     inkscape:window-maximized="0" />
  <metadata
     id="metadata1232">
    <rdf:RDF>
      <cc:Work
         rdf:about="">
        <dc:format>image/svg+xml</dc:format>
        <dc:type
           rdf:resource="http://purl.org/dc/dcmitype/StillImage" />
        <dc:title></dc:title>
      </cc:Work>
    </rdf:RDF>
  </metadata>
  <g
     inkscape:label="Layer 1"
     inkscape:groupmode="layer"
     id="layer1">
    <path
       clip-rule="evenodd"
       d="m 275.24315,104.60179 -30.61756,65.66116 c -3.0767,6.59429 -10.91092,9.44885 -17.50524,6.37215 l -17.97932,-8.38458 c -1.3096,-0.44421 -2.26441,-1.64442 -2.26441,-3.10321 0,-1.83337 1.48528,-3.31536 3.31539,-3.31536 0.56686,0 1.07411,0.17892 1.54164,0.43092 l 0.0305,-0.0567 18.14178,8.45755 c 3.29548,1.53832 7.21757,0.11278 8.7526,-3.18608 l 30.61759,-65.66109 c 1.53835,-3.2988 0.10882,-7.21428 -3.18609,-8.75261 L 243.3494,82.458108 c 0,0 -3.41814,-1.180254 -3.41814,-3.719871 0,-1.83008 1.48196,-3.315367 3.31536,-3.315367 0.5868,0 1.11059,0.195589 1.58809,0.460877 l 24.03985,11.209313 c 6.58768,3.07667 9.44221,10.91425 6.36883,17.50853 z m -58.4204,46.76348 h -79.56916 c -7.32371,0 -13.26155,-5.93786 -13.26155,-13.26154 V 58.534534 c 0,-7.323691 5.93784,-13.261547 13.26155,-13.261547 h 79.56916 c 7.32368,0 13.26156,5.937856 13.26156,13.261547 v 79.569196 c 0,7.32368 -5.93788,13.26154 -13.26156,13.26154 z m -36.46921,-33.15382 v -3.3154 l 3.83922,-1.5516 c 1.92292,-1.54497 6.77998,-6.1235 6.77998,-6.1235 l 0.13258,-0.64985 c 1.01123,-5.00954 2.43684,-13.26484 2.43684,-15.92711 0,-10.741836 -5.08914,-15.535877 -16.5073,-15.535877 -11.41819,0 -16.50729,4.790737 -16.50729,15.535877 0,2.89103 1.49522,11.29552 2.43678,15.91717 l 0.13258,0.81223 c 1.08414,1.09079 4.11107,3.99504 6.80982,5.86159 l 3.81599,1.66101 v 3.31539 c -0.0274,-0.26853 0,6.63076 0,6.63076 0,5.36098 -3.66347,6.90926 -8.68628,6.90926 -0.002,0 -0.006,0 -0.009,0 -11.26567,0.44096 -13.01949,4.15419 -13.41405,4.5852 -0.35472,0.52716 -0.74267,7.23085 -1.12385,8.39783 h 53.1058 c -0.37466,-1.1637 -0.74594,-7.83424 -1.15044,-8.43763 -0.15575,-0.18574 -1.63448,-4.04145 -13.13887,-4.53877 -5.28472,0 -8.95154,-1.55161 -8.95154,-6.91589 0,0 0.06,-7.09823 0,-6.63076 z m 43.09999,-59.676916 c 0,-3.660183 -2.97057,-6.630774 -6.63078,-6.630774 h -79.56916 c -3.66021,0 -6.63081,2.970588 -6.63081,6.630774 v 79.569196 c 0,3.66019 2.9706,6.63078 6.63081,6.63078 h 5.98424 c 1.1571,-2.13511 1.7671,-10.43682 2.95402,-12.2205 0,0 2.06546,-6.75677 18.33075,-7.39 1.65768,0 2.48652,-1.03778 2.48652,-2.6291 0,-1.28305 0,-2.29756 0,-2.29756 0,-0.32153 -0.0527,-0.60673 -0.0701,-0.91837 -1.44544,-1.15043 -1.78694,-1.58805 -4.29336,-3.67675 0,0 -5.54993,-3.63366 -6.16992,-7.7149 0,0 -2.56943,-12.59847 -2.56943,-17.23999 0,-11.438073 5.10569,-22.166651 23.13804,-22.166651 17.78706,0 23.13808,10.725258 23.13808,22.166651 0,4.52882 -2.56943,17.23999 -2.56943,17.23999 -0.51712,3.86573 -6.16992,7.7149 -6.16992,7.7149 -2.24783,2.08537 -3.26564,2.96396 -4.55534,3.80606 -0.009,0.26853 -0.06,0.51388 -0.06,0.78905 0,0 0,1.01786 0,2.29756 0,1.58807 0.8289,2.6291 2.48651,2.6291 16.51062,0.70948 18.57941,7.38999 18.57941,7.38999 1.18366,1.78035 1.79697,10.08539 2.95734,12.2205 h 5.98098 c 3.66015,0 6.63074,-2.97058 6.63074,-6.63076 V 58.534519 Z"
       fill-rule="evenodd"
       id="path26"
       style="stroke-width:3.31539" />
    <g
       id="g42"
       transform="matrix(1.9577071,0,0,1.9577071,-300.0672,-11.949188)">
      <ellipse
         style="fill:#ffffff;stroke-width:4.99999;stroke-linecap:round;stroke-linejoin:round"
         id="path36"
         cx="195.63074"
         cy="54.490765"
         rx="16.791872"
         ry="18.836617" />
      <g
         id="g14"
         transform="matrix(0.15010016,0,0,0.15010016,158.93678,13.203284)">
        <path
           d="m 430.4,147 h -67.5 l -40.4,-40.8 c 0,0 -0.2,-0.2 -0.3,-0.2 l -0.2,-0.2 v 0 C 316,99.8 307.9,96 298.7,96 h -84 c -9.8,0 -18.5,4.2 -24.6,10.9 v 0.1 l -39.5,40 h -69 C 63,147 48,161.6 48,180.2 v 202.1 c 0,18.6 15,33.7 33.6,33.7 h 348.8 c 18.5,0 33.6,-15.1 33.6,-33.7 V 180.2 C 464,161.6 448.9,147 430.4,147 Z M 256,365.5 c -50.9,0 -92.4,-41.6 -92.4,-92.6 0,-51.1 41.5,-92.6 92.4,-92.6 51,0 92.4,41.5 92.4,92.6 0,51 -41.4,92.6 -92.4,92.6 z m 168.1,-165 c -7.7,0 -14,-6.3 -14,-14.1 0,-7.8 6.3,-14.1 14,-14.1 7.7,0 14,6.3 14,14.1 0,7.8 -6.3,14.1 -14,14.1 z"
           id="path10" />
        <path
           d="m 256,202.9 c -38.6,0 -69.8,31.3 -69.8,70 0,38.6 31.2,70 69.8,70 38.5,0 69.8,-31.3 69.8,-70 0,-38.7 -31.3,-70 -69.8,-70 z"
           id="path12" />
      </g>
    </g>
    <path
       style="fill:none;stroke:#000000;stroke-width:3.92267;stroke-linecap:round;stroke-linejoin:miter;stroke-miterlimit:4;stroke-dasharray:none;stroke-opacity:1"
       d="m 166.07107,91.58801 c 0,0 3.50881,-5.26889 7.02906,0.0922"
       id="path50"
       sodipodi:nodetypes="cc" />
    <path
       style="fill:none;stroke:#000000;stroke-width:3.92267;stroke-linecap:round;stroke-linejoin:miter;stroke-miterlimit:4;stroke-dasharray:none;stroke-opacity:1"
       d="m 180.36162,91.58801 c 0,0 3.50885,-5.26889 7.02906,0.0922"
       id="path875"
       sodipodi:nodetypes="cc" />
    <path
       style="fill:none;stroke:#000000;stroke-width:2.8019;stroke-linecap:butt;stroke-linejoin:miter;stroke-miterlimit:4;stroke-dasharray:none;stroke-opacity:1"
       d="m 172.24608,103.26016 c 8.49398,0 8.49398,0 8.49398,0"
       id="path877" />
  </g>
</svg>
