<?xml version="1.0" encoding="UTF-8" standalone="no"?>
<svg
   xmlns:dc="http://purl.org/dc/elements/1.1/"
   xmlns:cc="http://creativecommons.org/ns#"
   xmlns:rdf="http://www.w3.org/1999/02/22-rdf-syntax-ns#"
   xmlns:svg="http://www.w3.org/2000/svg"
   xmlns="http://www.w3.org/2000/svg"
   xmlns:sodipodi="http://sodipodi.sourceforge.net/DTD/sodipodi-0.dtd"
   xmlns:inkscape="http://www.inkscape.org/namespaces/inkscape"
   width="297mm"
   height="210mm"
   viewBox="0 0 297 210"
   version="1.1"
   id="svg1173"
   inkscape:version="1.0.2 (e86c8708, 2021-01-15)"
   sodipodi:docname="logo.svg">
  <defs
     id="defs1167" />
  <sodipodi:namedview
     id="base"
     pagecolor="#ffffff"
     bordercolor="#666666"
     borderopacity="1.0"
     inkscape:pageopacity="0.0"
     inkscape:pageshadow="2"
     inkscape:zoom="0.35"
     inkscape:cx="158.57143"
     inkscape:cy="517.14286"
     inkscape:document-units="mm"
     inkscape:current-layer="layer1"
     inkscape:document-rotation="0"
     showgrid="false"
     inkscape:window-width="1252"
     inkscape:window-height="847"
     inkscape:window-x="0"
     inkscape:window-y="25"
     inkscape:window-maximized="0" />
  <metadata
     id="metadata1170">
    <rdf:RDF>
      <cc:Work
         rdf:about="">
        <dc:format>image/svg+xml</dc:format>
        <dc:type
           rdf:resource="http://purl.org/dc/dcmitype/StillImage" />
        <dc:title></dc:title>
      </cc:Work>
    </rdf:RDF>
  </metadata>
  <g
     inkscape:label="Layer 1"
     inkscape:groupmode="layer"
     id="layer1">
    <path
       clip-rule="evenodd"
       d="m 276.0546,103.66006 -30.84213,66.14278 c -3.09926,6.64265 -10.99092,9.51817 -17.63364,6.41889 l -18.11117,-8.44609 c -1.31922,-0.44747 -2.28104,-1.6565 -2.28104,-3.12598 0,-1.84684 1.49618,-3.33967 3.33969,-3.33967 0.57104,0 1.08202,0.18029 1.55299,0.43408 l 0.0307,-0.0569 18.27485,8.51958 c 3.31967,1.54962 7.27052,0.11359 8.81679,-3.20946 l 30.84218,-66.1427 c 1.54966,-3.322974 0.10967,-7.267194 -3.20946,-8.816816 L 243.92699,81.354063 c 0,0 -3.4432,-1.188908 -3.4432,-3.747156 0,-1.843502 1.49284,-3.339683 3.33966,-3.339683 0.5911,0 1.11876,0.197024 1.59976,0.464258 l 24.21615,11.291527 c 6.63602,3.099244 9.51148,10.994313 6.41556,17.636951 z m -58.84888,47.10646 h -80.15278 c -7.37742,0 -13.35882,-5.98142 -13.35882,-13.3588 V 57.254905 c 0,-7.377408 5.9814,-13.358815 13.35882,-13.358815 h 80.15278 c 7.37738,0 13.35884,5.981407 13.35884,13.358815 v 80.152815 c 0,7.37738 -5.98146,13.3588 -13.35884,13.3588 z m -36.73671,-33.39698 v -3.33973 l 3.86739,-1.56298 c 1.93701,-1.55629 6.8297,-6.16841 6.8297,-6.16841 l 0.13355,-0.65463 c 1.01865,-5.04627 2.45472,-13.362123 2.45472,-16.043923 0,-10.820619 -5.12646,-15.649824 -16.62838,-15.649824 -11.50195,0 -16.62836,4.825877 -16.62836,15.649824 0,2.912238 1.50618,11.378373 2.45464,16.033913 l 0.13355,0.81819 c 1.09209,1.09879 4.14122,4.02435 6.85975,5.90458 l 3.84399,1.67322 v 3.33969 c -0.0276,-0.2705 0,6.6794 0,6.6794 0,5.4003 -3.69035,6.95993 -8.74998,6.95993 -0.002,0 -0.007,0 -0.009,0 -11.3483,0.44421 -13.11497,4.18466 -13.51246,4.61884 -0.3573,0.53102 -0.7481,7.28387 -1.13208,8.45941 h 53.49532 c -0.37741,-1.17222 -0.75141,-7.89169 -1.15887,-8.4995 -0.15691,-0.18722 -1.64646,-4.0711 -13.23524,-4.57207 -5.32348,0 -9.01721,-1.56298 -9.01721,-6.96661 0,0 0.0606,-7.15031 0,-6.6794 z m 43.41612,-60.114635 c 0,-3.687032 -2.99235,-6.679408 -6.67941,-6.679408 h -80.15278 c -3.68704,0 -6.67945,2.992376 -6.67945,6.679408 v 80.152815 c 0,3.68704 2.99241,6.67941 6.67945,6.67941 h 6.02813 c 1.16559,-2.15078 1.78007,-10.51337 2.97569,-12.31013 0,0 2.0806,-6.80633 18.46519,-7.4442 1.66983,0 2.50476,-1.0454 2.50476,-2.64837 0,-1.29249 0,-2.31442 0,-2.31442 0,-0.3239 -0.053,-0.61119 -0.0706,-0.9251 -1.45604,-1.15887 -1.80006,-1.59971 -4.32488,-3.70373 0,0 -5.59061,-3.66031 -6.21516,-7.7715 0,0 -2.58827,-12.690874 -2.58827,-17.366425 0,-11.521976 5.14315,-22.329243 23.30774,-22.329243 17.91753,0 23.3078,10.803924 23.3078,22.329243 0,4.562026 -2.58827,17.366425 -2.58827,17.366425 -0.52092,3.89409 -6.21519,7.7715 -6.21519,7.7715 -2.26431,2.10065 -3.28959,2.98569 -4.58874,3.83396 -0.009,0.27051 -0.0606,0.51766 -0.0606,0.79485 0,0 0,1.02533 0,2.31441 0,1.59971 0.83499,2.6484 2.50475,2.6484 16.63172,0.71466 18.71569,7.44417 18.71569,7.44417 1.19233,1.79342 1.81016,10.15938 2.97905,12.31014 h 6.02483 c 3.687,0 6.67939,-2.99238 6.67939,-6.67939 V 57.254888 Z"
       fill-rule="evenodd"
       id="path26"
       style="stroke-width:3.3397" />
    <ellipse
       style="fill:#2a7fff;stroke:none;stroke-width:0.0327932;stroke-linecap:round;stroke-linejoin:round;stroke-miterlimit:4;stroke-dasharray:none"
       id="path277"
       cx="85.996834"
       cy="88.566383"
       rx="32.975349"
       ry="35.320274" />
    <circle
       style="fill:#ff0000;stroke:none;stroke-width:0.032793;stroke-linecap:round;stroke-linejoin:round;stroke-miterlimit:4;stroke-dasharray:none"
       id="path1106"
       cx="137.0827"
       cy="65.818848"
       r="6.9240265" />
    <g
       id="g14"
       transform="matrix(0.29600747,0,0,0.29600747,11.007259,10.587838)">
      <path
         d="m 430.4,147 h -67.5 l -40.4,-40.8 c 0,0 -0.2,-0.2 -0.3,-0.2 l -0.2,-0.2 v 0 C 316,99.8 307.9,96 298.7,96 h -84 c -9.8,0 -18.5,4.2 -24.6,10.9 v 0.1 l -39.5,40 h -69 C 63,147 48,161.6 48,180.2 v 202.1 c 0,18.6 15,33.7 33.6,33.7 h 348.8 c 18.5,0 33.6,-15.1 33.6,-33.7 V 180.2 C 464,161.6 448.9,147 430.4,147 Z M 256,365.5 c -50.9,0 -92.4,-41.6 -92.4,-92.6 0,-51.1 41.5,-92.6 92.4,-92.6 51,0 92.4,41.5 92.4,92.6 0,51 -41.4,92.6 -92.4,92.6 z m 168.1,-165 c -7.7,0 -14,-6.3 -14,-14.1 0,-7.8 6.3,-14.1 14,-14.1 7.7,0 14,6.3 14,14.1 0,7.8 -6.3,14.1 -14,14.1 z"
         id="path10" />
      <path
         d="m 256,202.9 c -38.6,0 -69.8,31.3 -69.8,70 0,38.6 31.2,70 69.8,70 38.5,0 69.8,-31.3 69.8,-70 0,-38.7 -31.3,-70 -69.8,-70 z"
         id="path12" />
    </g>
    <path
       style="fill:none;stroke:#000000;stroke-width:3.95146;stroke-linecap:round;stroke-linejoin:miter;stroke-miterlimit:4;stroke-dasharray:none;stroke-opacity:1"
       d="m 166.08179,90.550811 c 0,0 3.53454,-5.307527 7.0806,0.09277"
       id="path50"
       sodipodi:nodetypes="cc" />
    <path
       style="fill:none;stroke:#000000;stroke-width:3.95146;stroke-linecap:round;stroke-linejoin:miter;stroke-miterlimit:4;stroke-dasharray:none;stroke-opacity:1"
       d="m 180.47715,90.550811 c 0,0 3.53459,-5.307527 7.08061,0.09277"
       id="path875"
       sodipodi:nodetypes="cc" />
    <path
       style="fill:none;stroke:#000000;stroke-width:2.82244;stroke-linecap:butt;stroke-linejoin:miter;stroke-miterlimit:4;stroke-dasharray:none;stroke-opacity:1"
       d="m 172.30207,102.30858 c 8.5563,0 8.5563,0 8.5563,0"
       id="path877" />
  </g>
</svg>
